<svg width="137" height="27" viewBox="0 0 137 27" fill="none" xmlns="http://www.w3.org/2000/svg">
<path fill-rule="evenodd" clip-rule="evenodd" d="M39.0596 17.415L33.4696 9.66502V19.77H31.9346V6.77002H33.2046L39.5346 15.52L45.8496 6.77002H47.1146V19.77H45.5846V9.66502C43.8446 12.25 41.7246 14.83 39.9896 17.415H39.0596Z" fill="#FEFEFE"/>
<path fill-rule="evenodd" clip-rule="evenodd" d="M56.63 6.77002H54.815L48.75 19.77H50.585L52.08 16.41L55.73 8.29002L59.38 16.41L60.86 19.77H62.695L56.63 6.77002Z" fill="#FEFEFE"/>
<path fill-rule="evenodd" clip-rule="evenodd" d="M64.7402 19.8401H66.3402V6.64014H64.7402V19.8401Z" fill="#FEFEFE"/>
<path fill-rule="evenodd" clip-rule="evenodd" d="M69.9404 6.64014H71.1804L80.4154 17.2201V6.64014H81.9404V19.8401H80.6954L71.4604 9.26014V19.8401H69.9404V6.64014Z" fill="#FEFEFE"/>
<path fill-rule="evenodd" clip-rule="evenodd" d="M88.9304 8.11014H83.9404V6.64014H95.5404V8.11014H90.5504V19.8401H88.9304V8.11014Z" fill="#FEFEFE"/>
<path fill-rule="evenodd" clip-rule="evenodd" d="M97.1396 6.64014H106.535V8.11014H98.7446V12.2951H105.75V13.7701H98.7446V18.3701H106.74V19.8401H97.1396V6.64014Z" fill="#FEFEFE"/>
<path fill-rule="evenodd" clip-rule="evenodd" d="M109.14 6.64014H110.38L119.615 17.2201V6.64014H121.14V19.8401H119.895L110.66 9.26014V19.8401H109.14V6.64014Z" fill="#FEFEFE"/>
<path fill-rule="evenodd" clip-rule="evenodd" d="M129.95 14.6151V19.8401H128.325V14.6151L122.74 6.64014H124.625L129.14 12.9951L133.63 6.64014H135.54L129.95 14.6151Z" fill="#FEFEFE"/>
<path d="M22.0249 16.4999V9.9749C23.0208 9.85732 23.8134 9.08539 23.9573 8.09301C24.1012 7.10062 23.5604 6.13536 22.639 5.7398C21.7175 5.34424 20.6453 5.61706 20.0249 6.4049L14.3449 3.1499C14.2952 3.31085 14.2264 3.46528 14.1399 3.6099L19.7449 6.8449C19.4383 7.45345 19.4383 8.17135 19.7449 8.7799L14.0399 12.0849C13.6255 11.5007 12.9537 11.1536 12.2374 11.1536C11.5212 11.1536 10.8494 11.5007 10.4349 12.0849L4.70494 8.7749C5.01144 8.16984 5.01144 7.45497 4.70494 6.8499L10.3199 3.6099C10.2335 3.46528 10.1647 3.31085 10.1149 3.1499L4.45994 6.4249C3.84123 5.63399 2.76785 5.35825 1.84454 5.75303C0.921234 6.14781 0.379009 7.11432 0.523348 8.10806C0.667687 9.1018 1.46248 9.87412 2.45994 9.9899V16.4749C1.45353 16.5824 0.647236 17.357 0.499495 18.3583C0.351754 19.3596 0.899974 20.3341 1.83245 20.7276C2.76493 21.1212 3.84557 20.8342 4.45994 20.0299L10.1599 23.3199C10.2089 23.1595 10.276 23.0051 10.3599 22.8599L4.72994 19.6249C4.87031 19.3331 4.94377 19.0137 4.94494 18.6899C4.94005 17.5535 4.07597 16.6052 2.94494 16.4949V9.9749C3.53227 9.9211 4.07306 9.63267 4.44494 9.1749L10.2049 12.4999C9.81907 13.4283 10.1054 14.5002 10.9028 15.1126C11.7002 15.725 12.8097 15.725 13.6071 15.1126C14.4045 14.5002 14.6908 13.4283 14.3049 12.4999L20.0549 9.1799C20.4288 9.63447 20.9689 9.92071 21.5549 9.9749V16.4749C20.422 16.5854 19.5573 17.5366 19.5549 18.6749C19.5555 19.0004 19.629 19.3215 19.7699 19.6149L14.1849 22.8399C14.2713 22.9828 14.3402 23.1355 14.3899 23.2949L19.9999 20.0549C20.4153 20.5958 21.058 20.9134 21.7399 20.9149C22.9179 20.9275 23.8997 20.0159 23.9743 18.8402C24.0488 17.6645 23.1901 16.6362 22.0199 16.4999H22.0249Z" fill="white"/>
<circle cx="12.2396" cy="23.975" r="2.225" stroke="white" stroke-width="0.5"/>
<circle cx="12.2396" cy="2.475" r="2.225" stroke="white" stroke-width="0.5"/>
</svg>
